<?xml version="1.0" standalone="no"?>
<!DOCTYPE svg PUBLIC "-//W3C//DTD SVG 20010904//EN"
 "http://www.w3.org/TR/2001/REC-SVG-20010904/DTD/svg10.dtd">
<svg version="1.0" xmlns="http://www.w3.org/2000/svg"
 width="700.000000pt" height="700.000000pt" viewBox="0 0 700.000000 700.000000"
 preserveAspectRatio="xMidYMid meet">
<metadata>
Created by potrace 1.14, written by Peter Selinger 2001-2017
</metadata>
<g transform="translate(0.000000,700.000000) scale(0.100000,-0.100000)"
fill="#000000" stroke="none">
<path d="M3279 6945 c-2 -1 -44 -6 -94 -10 -84 -6 -126 -11 -184 -20 -13 -2
-45 -7 -70 -11 -129 -18 -369 -77 -516 -126 -430 -143 -824 -364 -1156 -647
-167 -144 -352 -335 -465 -481 -32 -41 -64 -80 -70 -87 -20 -21 -180 -265
-224 -343 -170 -298 -331 -714 -375 -969 -3 -19 -8 -37 -10 -40 -2 -4 -6 -27
-10 -51 -4 -25 -11 -67 -16 -95 -5 -27 -12 -70 -15 -95 -3 -25 -7 -58 -10 -75
-23 -175 -23 -644 0 -775 3 -14 7 -47 10 -75 29 -254 119 -591 230 -860 77
-185 206 -426 318 -594 47 -70 195 -269 209 -281 3 -3 37 -41 75 -85 184 -212
426 -423 674 -588 69 -46 132 -87 140 -91 8 -4 38 -20 65 -36 84 -50 324 -166
430 -208 266 -105 584 -187 835 -216 25 -3 74 -9 110 -13 84 -10 541 -10 645
0 125 12 333 43 410 62 11 2 40 9 65 16 25 6 52 12 60 14 43 9 206 58 280 84
365 128 703 313 1004 551 133 105 393 356 487 469 24 29 49 59 54 65 35 39
142 186 197 271 216 330 366 666 459 1025 54 208 86 395 105 620 5 67 6 424 0
495 -7 93 -18 191 -21 205 -2 8 -7 40 -10 70 -3 30 -8 62 -10 70 -2 8 -7 29
-9 45 -28 163 -92 390 -162 580 -49 131 -49 131 -123 285 -409 852 -1171 1512
-2071 1791 -89 28 -253 72 -310 83 -14 2 -50 10 -80 16 -64 12 -176 29 -315
46 -48 5 -531 14 -536 9z"/>
</g>
</svg>
