<svg xmlns="http://www.w3.org/2000/svg" width="1921.002" height="700.626" viewBox="0 0 1921.002 700.626">
  <path id="Subtraction_4" data-name="Subtraction 4" d="M13437.5,8056.628h0V7356h1921v161.229c-3.582-1.335-7.253-2.681-10.912-4a1237.21,1237.21,0,0,0-176.52-49.345c-35.283-7.071-70.976-12.542-106.087-16.258-18.8-2-37.871-3.532-56.691-4.56-19.579-1.069-39.371-1.611-58.827-1.611-25.692,0-51.536.945-76.815,2.81-26.551,1.955-53.254,4.982-79.368,9-27.323,4.2-54.731,9.587-81.464,16.019-27.955,6.731-55.913,14.771-83.1,23.894-28.306,9.493-56.66,20.46-84.275,32.6-28.626,12.585-57.222,26.767-84.99,42.153-14.261,7.9-28.6,16.291-42.618,24.927-14.243,8.771-28.587,18.065-42.634,27.625-14.267,9.717-28.592,19.958-42.578,30.438-14.257,10.689-28.546,21.911-42.473,33.352-22.927,18.849-46.558,37.326-70.236,54.919-23.019,17.1-46.627,33.771-70.171,49.544-22.858,15.325-46.361,30.278-69.855,44.443-22.72,13.7-46.042,27.022-69.32,39.6-22.59,12.2-45.654,23.987-68.554,35.03-22.146,10.678-44.872,21.015-67.55,30.724-21.819,9.333-44.129,18.309-66.308,26.677-21.447,8.087-43.265,15.793-64.844,22.9-20.784,6.848-42.028,13.373-63.141,19.392-20.267,5.772-40.858,11.2-61.2,16.143-38.181,9.272-77.091,17.217-115.649,23.613-21.46,3.558-43.269,6.709-64.821,9.368Z" transform="translate(-13437.499 -7356.002)" fill="#0f3820"/>
</svg>
