<svg width="24" height="24" viewBox="0 0 24 24" fill="none" xmlns="http://www.w3.org/2000/svg">
<path d="M2.005 10.2378V11.9278L12.007 18.1818L21.995 11.9278V10.2378L12.007 16.4668L2.005 10.2378Z" fill="white"/>
<path d="M15.938 12.4688L17.403 11.5308C16.242 9.82979 14.25 8.65479 12.007 8.65479C9.74999 8.65479 7.77099 9.78979 6.63599 11.5448C6.72899 11.4518 6.78199 11.3988 6.87399 11.3338C9.68499 8.99779 13.734 9.52579 15.938 12.4688Z" fill="white"/>
<path d="M9.05101 13.0629C9.56696 12.684 10.1909 12.4807 10.831 12.4829C11.914 12.4829 12.878 13.0369 13.523 13.9729L14.922 13.1019C14.315 12.1389 13.234 11.5449 12.006 11.5449C10.78 11.5449 9.69701 12.1649 9.05101 13.0629ZM5.25001 9.01187C9.36701 5.76587 15.187 6.64987 18.287 10.9649L18.313 10.9909L19.83 10.0529C18.9812 8.75195 17.8213 7.68334 16.4553 6.94384C15.0893 6.20435 13.5603 5.81734 12.007 5.81787C10.4536 5.81818 8.92466 6.20553 7.55847 6.94493C6.19227 7.68434 5.03184 8.75249 4.18201 10.0529C4.48601 9.71087 4.86801 9.30187 5.25001 9.01187V9.01187Z" fill="white"/>
</svg>
