<svg width="24" height="24" viewBox="0 0 24 24" fill="none" xmlns="http://www.w3.org/2000/svg">
<path d="M12.01 14C13.1146 14 14.01 13.1046 14.01 12C14.01 10.8954 13.1146 10 12.01 10C10.9054 10 10.01 10.8954 10.01 12C10.01 13.1046 10.9054 14 12.01 14Z" fill="white"/>
<path d="M11.01 22H13.01L13.51 15H10.51L11.01 22Z" fill="white"/>
<path d="M12 2C9.57199 2.01429 7.23208 2.91149 5.41694 4.52421C3.6018 6.13692 2.43542 8.35496 2.13546 10.7644C1.8355 13.1739 2.42245 15.6102 3.78677 17.6188C5.1511 19.6273 7.1996 21.0708 9.55003 21.68L9.40003 19.56C7.61041 18.9437 6.09728 17.7128 5.12959 16.086C4.1619 14.4593 3.80233 12.5422 4.11478 10.6754C4.42724 8.80858 5.39148 7.11302 6.83613 5.89007C8.28078 4.66712 10.1122 3.99601 12.005 3.99601C13.8978 3.99601 15.7293 4.66712 17.1739 5.89007C18.6186 7.11302 19.5828 8.80858 19.8953 10.6754C20.2077 12.5422 19.8482 14.4593 18.8805 16.086C17.9128 17.7128 16.3996 18.9437 14.61 19.56L14.46 21.68C16.8112 21.0706 18.8603 19.6262 20.2245 17.6167C21.5888 15.6071 22.175 13.1697 21.8738 10.7595C21.5725 8.34938 20.4043 6.13126 18.5874 4.51935C16.7704 2.90743 14.4289 2.01191 12 2V2Z" fill="white"/>
<path d="M15.32 9.60988C15.4685 9.82191 15.5927 10.05 15.69 10.2899C15.7921 10.5314 15.8692 10.7827 15.92 11.0399C15.9801 11.3023 16.0103 11.5707 16.01 11.8399C16.0103 12.1124 15.9801 12.3841 15.92 12.6499C15.8692 12.9071 15.7921 13.1584 15.69 13.3999C15.5927 13.6398 15.4685 13.8679 15.32 14.0799C15.2119 14.23 15.095 14.3736 14.97 14.5099L14.78 17.1299C14.9795 17.0386 15.1732 16.9351 15.36 16.8199C16.0085 16.3938 16.566 15.8431 17 15.1999C17.2171 14.8863 17.4014 14.5512 17.55 14.1999C17.7043 13.8359 17.8216 13.4573 17.9 13.0699C17.9751 12.6644 18.0086 12.2522 18 11.8399C17.9963 11.4333 17.9528 11.028 17.87 10.6299C17.7192 9.86758 17.4239 9.14118 17 8.48988C16.7844 8.17153 16.54 7.87362 16.27 7.59988C15.9989 7.32699 15.7007 7.0824 15.38 6.86988C15.0644 6.65322 14.7297 6.46578 14.38 6.30988C14.0011 6.16846 13.6092 6.06462 13.21 5.99988C12.4146 5.83988 11.5954 5.83988 10.8 5.99988C10.4115 6.07888 10.0326 6.19958 9.67001 6.35989C9.31872 6.5085 8.98363 6.6928 8.67001 6.90988C8.34935 7.1224 8.05114 7.36699 7.78001 7.63988C7.49452 7.89873 7.23342 8.18326 7.00001 8.48988C6.56556 9.13891 6.26001 9.86544 6.10001 10.6299C6.02723 11.029 5.99374 11.4343 6.00001 11.8399C5.99934 12.2462 6.03954 12.6516 6.12001 13.0499C6.19846 13.4373 6.31572 13.8159 6.47001 14.1799C6.61862 14.5312 6.80292 14.8663 7.02001 15.1799C7.4554 15.8152 8.00466 16.3645 8.64001 16.7999C8.82678 16.9151 9.02048 17.0186 9.22001 17.1099L9.00001 14.5099C8.87498 14.3736 8.75811 14.23 8.65001 14.0799C8.50148 13.8679 8.37736 13.6398 8.28001 13.3999C8.17787 13.1584 8.1008 12.9071 8.05001 12.6499C8.00329 12.3826 7.98651 12.1109 8.00001 11.8399C7.99638 11.5711 8.02322 11.3027 8.08001 11.0399C8.1308 10.7827 8.20787 10.5314 8.31001 10.2899C8.40736 10.05 8.53148 9.82191 8.68001 9.60988C8.82617 9.39058 8.99365 9.18625 9.18001 8.99988C9.36044 8.8209 9.55806 8.66012 9.77001 8.51989C9.98203 8.37136 10.2101 8.24724 10.45 8.14988C10.6912 8.04453 10.9425 7.96411 11.2 7.90988C11.732 7.80994 12.278 7.80994 12.81 7.90988C13.0675 7.96411 13.3188 8.04453 13.56 8.14988C14.0396 8.33851 14.4728 8.62845 14.83 8.99988C15.0157 9.18421 15.1801 9.38883 15.32 9.60988V9.60988Z" fill="white"/>
</svg>
