<svg width="24" height="24" viewBox="0 0 24 24" fill="none" xmlns="http://www.w3.org/2000/svg">
<path d="M18.5699 14.6129C20.5255 12.8812 21.5125 11.077 21.5125 9.36348C21.5125 7.65 20.5498 5.85781 19.2783 5.05859C18.6546 4.79219 18.3943 5.55508 18.7939 5.82148C19.805 6.45723 20.6042 7.94668 20.6042 9.37559C20.6042 10.8045 19.7142 12.3787 17.9644 13.9287C17.5406 14.4555 18.1945 14.9277 18.5638 14.6068L18.5699 14.6129ZM15.6333 13.0689C16.9593 12.3242 17.8494 10.8711 17.8494 9.47246C17.8494 8.07383 17.0925 6.82656 15.8937 6.20293C15.258 5.97891 15.046 6.76602 15.4699 7.00215C16.3781 7.47441 16.9412 8.41289 16.9412 9.43613C16.9351 10.5502 16.2328 11.6885 15.1853 12.2758C14.6585 12.7057 15.2216 13.2869 15.6333 13.075V13.0689ZM11.9945 11.743C13.0783 11.743 13.9623 10.865 13.9623 9.78125C13.9623 8.69746 13.0783 7.81348 11.9945 7.81348V5.95469C13.1691 4.20488 15.1914 3 17.4619 3C21.0705 3 23.9949 5.92441 23.9949 9.53301C23.9949 11.8217 22.5417 13.4746 21.0281 15.0004L15.1005 20.607C14.7191 20.8432 14.2832 20.6857 14.2771 20.2559V15.8904C14.2771 14.625 13.2539 13.6018 11.9884 13.6018L11.9945 11.743Z" fill="white"/>
<path d="M5.42501 14.6129C3.46934 12.8812 2.48243 11.077 2.48243 9.36348C2.48243 7.65 3.44512 5.85781 4.71661 5.05859C5.34024 4.79219 5.60059 5.55508 5.20098 5.82148C4.18985 6.45723 3.39063 7.94668 3.39063 9.37559C3.39063 10.8045 4.28067 12.3787 6.03048 13.9287C6.4543 14.4555 5.8004 14.9277 5.43106 14.6068L5.42501 14.6129ZM8.36153 13.0689C7.03556 12.3242 6.14552 10.8711 6.14552 9.47246C6.14552 8.07383 6.90235 6.82656 8.10118 6.20293C8.73692 5.97891 8.94884 6.76602 8.52501 7.00215C7.61681 7.47441 7.05372 8.41289 7.05372 9.43613C7.05977 10.5502 7.76212 11.6885 8.80958 12.2758C9.33634 12.7057 8.77325 13.2869 8.36153 13.075V13.0689ZM12.0004 11.743C10.9166 11.743 10.0326 10.865 10.0326 9.78125C10.0326 8.69746 10.9166 7.81348 12.0004 7.81348V5.95469C10.8258 4.20488 8.80353 3 6.53302 3C2.92442 3 0 5.92441 0 9.53301C0 11.8217 1.45313 13.4746 2.9668 15.0004L8.89435 20.607C9.27579 20.8432 9.71173 20.6857 9.71779 20.2559V15.8904C9.71779 14.625 10.741 13.6018 12.0065 13.6018L12.0004 11.743Z" fill="white"/>
</svg>
