<svg width="36" height="36" viewBox="0 0 36 36" fill="none" xmlns="http://www.w3.org/2000/svg">
<path d="M27.2405 33.1824C27.2374 33.2834 27.2025 33.3808 27.1406 33.4606C27.0787 33.5405 26.9931 33.5987 26.8961 33.6268C26.7863 33.6624 26.6674 33.6565 26.5617 33.6102C26.456 33.564 26.371 33.4805 26.3228 33.3757C25.9961 32.8358 25.6828 32.2914 25.3673 31.7447C25.0917 31.2648 24.8177 30.7833 24.5451 30.3004C24.5014 30.2456 24.4701 30.182 24.4535 30.114C24.4369 30.0459 24.4352 29.975 24.4488 29.9063C24.4623 29.8376 24.4907 29.7726 24.5319 29.7159C24.5731 29.6593 24.6261 29.6123 24.6873 29.5782C24.9229 29.4226 25.2073 29.5093 25.385 29.8137C25.9806 30.8248 26.5605 31.8403 27.1449 32.8558C27.2106 32.9518 27.244 33.0662 27.2405 33.1824Z" fill="#F7F5EE"/>
<path d="M11.5593 6.03091C11.5544 6.11696 11.5261 6.20005 11.4776 6.27128C11.429 6.34251 11.362 6.39921 11.2838 6.43532C11.2051 6.47668 11.1158 6.49349 11.0275 6.48359C10.9392 6.47369 10.8558 6.43752 10.7883 6.37977C10.6742 6.28014 10.5825 6.15745 10.5194 6.01979L8.93281 3.27108C8.89578 3.2059 8.86023 3.13923 8.82616 3.07109C8.79277 3.01686 8.77096 2.95632 8.76208 2.89326C8.7532 2.8302 8.75745 2.76598 8.77456 2.70464C8.79167 2.6433 8.82127 2.58616 8.8615 2.5368C8.90174 2.48744 8.95174 2.44693 9.00837 2.4178C9.06102 2.3816 9.12085 2.35718 9.1838 2.34621C9.24674 2.33523 9.31131 2.33795 9.3731 2.35419C9.4349 2.37043 9.49246 2.3998 9.54187 2.44031C9.59129 2.48081 9.63139 2.53149 9.65944 2.5889C9.98608 3.11331 10.2905 3.65106 10.5994 4.18436C10.8771 4.6621 11.1505 5.14429 11.426 5.62648C11.507 5.74637 11.5531 5.88636 11.5593 6.03091Z" fill="#F7F5EE"/>
<path d="M24.4473 6.02647C24.4534 5.89701 24.4932 5.77139 24.5628 5.66205C25.1272 4.67989 25.6894 3.69551 26.2627 2.71557C26.4738 2.35337 26.736 2.25782 26.9982 2.41336C27.2604 2.56891 27.316 2.85778 27.1115 3.20442C26.5486 4.18659 25.982 5.16727 25.4116 6.14646C25.2761 6.36867 25.0917 6.54866 24.7939 6.462C24.6974 6.43564 24.6117 6.37922 24.5494 6.30091C24.4871 6.2226 24.4513 6.12647 24.4473 6.02647Z" fill="#F7F5EE"/>
<path d="M8.7619 33.2378C8.75656 33.0797 8.8017 32.924 8.89078 32.7933C9.45075 31.8216 10.0114 30.8512 10.5729 29.8824C10.7218 29.6247 10.9129 29.438 11.2395 29.5491C11.3043 29.5682 11.3638 29.6018 11.4136 29.6473C11.4635 29.6928 11.5023 29.7491 11.5271 29.8118C11.552 29.8746 11.5622 29.9421 11.557 30.0094C11.5518 30.0767 11.5314 30.142 11.4973 30.2002C10.8884 31.2868 10.2618 32.3645 9.62851 33.4377C9.57858 33.5278 9.49789 33.597 9.40119 33.6325C9.30449 33.668 9.19824 33.6675 9.10188 33.6311C9.01342 33.6051 8.93432 33.5542 8.87403 33.4844C8.81374 33.4147 8.77481 33.329 8.7619 33.2378Z" fill="#F7F5EE"/>
<path d="M33.1936 27.2406C33.0496 27.2351 32.9101 27.1888 32.7914 27.1073C31.8196 26.5473 30.8493 25.9858 29.8804 25.4229C29.7821 25.3683 29.6941 25.2969 29.6205 25.2118C29.5556 25.1411 29.5167 25.0505 29.5102 24.9547C29.5038 24.859 29.5301 24.7639 29.5849 24.6852C29.7027 24.4963 29.8982 24.3674 30.096 24.463C31.277 25.0541 32.4212 25.716 33.5224 26.4451C33.594 26.5003 33.6432 26.5795 33.6608 26.6682C33.6784 26.7569 33.6631 26.849 33.618 26.9273C33.5835 27.0139 33.5255 27.0891 33.4505 27.1445C33.3755 27.1998 33.2865 27.2331 33.1936 27.2406Z" fill="#F7F5EE"/>
<path d="M2.80434 27.2407C2.71819 27.234 2.63524 27.2051 2.56359 27.1568C2.49193 27.1085 2.43401 27.0425 2.39548 26.9651C2.35241 26.8871 2.33482 26.7976 2.34518 26.7092C2.35554 26.6207 2.39334 26.5377 2.45325 26.4718C2.51535 26.3954 2.5906 26.3307 2.67546 26.2807C3.67762 25.6985 4.67534 25.123 5.68639 24.5453C5.75346 24.4974 5.83086 24.466 5.91232 24.4537C5.99378 24.4413 6.077 24.4483 6.15524 24.4742C6.23977 24.5023 6.31464 24.5537 6.37124 24.6225C6.42785 24.6913 6.46389 24.7747 6.47522 24.863C6.48797 24.9708 6.46596 25.0797 6.4124 25.1741C6.35883 25.2684 6.27651 25.3432 6.17746 25.3874L4.22648 26.5251L3.21098 27.1073C3.09062 27.189 2.94971 27.2352 2.80434 27.2407Z" fill="#F7F5EE"/>
<path d="M6.48855 11.0637C6.48916 11.1492 6.46703 11.2333 6.42444 11.3074C6.38185 11.3815 6.32032 11.443 6.24615 11.4855C6.17199 11.528 6.08787 11.55 6.00239 11.5493C5.91691 11.5486 5.83316 11.5252 5.75971 11.4815C5.27974 11.2348 4.8131 10.9548 4.34424 10.686C3.79761 10.3704 3.25098 10.0593 2.71101 9.73492C2.35326 9.51271 2.25549 9.25717 2.41548 8.99496C2.57547 8.73275 2.85989 8.68609 3.20876 8.89052C4.18203 9.44752 5.15308 10.0075 6.12191 10.5704C6.22102 10.6131 6.30711 10.6812 6.37149 10.7678C6.43586 10.8544 6.47624 10.9565 6.48855 11.0637Z" fill="#F7F5EE"/>
<path d="M29.9782 11.5549C29.8897 11.5498 29.8041 11.5209 29.7306 11.4712C29.6571 11.4215 29.5983 11.353 29.5605 11.2727C29.5183 11.1941 29.5018 11.1042 29.5134 11.0157C29.5249 10.9272 29.5639 10.8445 29.6249 10.7794C29.7121 10.6904 29.8126 10.6155 29.9227 10.5572C30.8693 10.0061 31.8174 9.45799 32.7669 8.91284C33.1491 8.69063 33.4336 8.73286 33.5891 9.01284C33.7447 9.29282 33.638 9.53947 33.2491 9.77056C32.7403 10.0728 32.2248 10.3661 31.7137 10.6594L30.3671 11.4282C30.2515 11.5052 30.117 11.549 29.9782 11.5549Z" fill="#F7F5EE"/>
<path d="M24.3673 28.1891C24.3631 28.2771 24.3358 28.3624 24.2883 28.4365C24.2407 28.5106 24.1744 28.5709 24.0962 28.6113C24.0196 28.6566 23.9308 28.6771 23.8421 28.6699C23.7534 28.6628 23.669 28.6283 23.6007 28.5713C23.5227 28.5096 23.4564 28.4343 23.4051 28.3491C22.8429 27.3781 22.2941 26.4048 21.7275 25.4337C21.6592 25.3415 21.6256 25.2281 21.6325 25.1136C21.6394 24.999 21.6864 24.8905 21.7652 24.8071C22.0163 24.536 22.3696 24.6049 22.5963 24.9915C23.1274 25.8937 23.6429 26.8025 24.1673 27.7069C24.2731 27.8485 24.3419 28.0142 24.3673 28.1891Z" fill="#F7F5EE"/>
<path d="M13.8923 24.6428C14.2745 24.6428 14.4812 25.0384 14.2745 25.4183C13.9234 26.0583 13.5501 26.6871 13.1857 27.3204C12.9857 27.67 12.7828 28.0182 12.5769 28.3648C12.4124 28.6337 12.1835 28.7737 11.8813 28.587C11.5791 28.4004 11.5703 28.1426 11.7302 27.8671C12.2961 26.8849 12.865 25.9042 13.4368 24.925C13.4803 24.8414 13.5456 24.771 13.6258 24.7213C13.706 24.6717 13.798 24.6446 13.8923 24.6428Z" fill="#F7F5EE"/>
<path d="M28.6694 23.8521C28.6711 23.9425 28.6481 24.0316 28.603 24.1099C28.5579 24.1882 28.4923 24.2527 28.4133 24.2966C28.3342 24.3404 28.2448 24.362 28.1544 24.3588C28.0641 24.3557 27.9764 24.328 27.9006 24.2788C27.4561 24.041 27.0251 23.7788 26.5895 23.5255C26.0562 23.2166 25.5185 22.9122 24.9896 22.5966C24.6497 22.3944 24.5608 22.1522 24.7097 21.8833C24.8585 21.6145 25.123 21.5589 25.4607 21.7478C26.4251 22.2922 27.3828 22.8477 28.3494 23.401C28.4371 23.4423 28.5127 23.5055 28.5687 23.5845C28.6248 23.6635 28.6595 23.7557 28.6694 23.8521Z" fill="#F7F5EE"/>
<path d="M7.85298 24.3698C7.75032 24.3699 7.64985 24.3401 7.56384 24.2841C7.47782 24.228 7.40997 24.1482 7.36856 24.0542C7.32589 23.9681 7.31409 23.8699 7.33512 23.776C7.35615 23.6822 7.40874 23.5984 7.48411 23.5387C7.63248 23.422 7.79086 23.3187 7.95741 23.2298C8.79736 22.7439 9.63805 22.2603 10.4795 21.7788C10.5479 21.7227 10.6275 21.6817 10.7128 21.6583C10.7982 21.635 10.8875 21.6299 10.975 21.6433C11.0683 21.6635 11.1534 21.7111 11.2195 21.78C11.2856 21.8489 11.3297 21.9359 11.3461 22.0299C11.3656 22.143 11.3458 22.2593 11.2901 22.3596C11.2343 22.4599 11.1458 22.538 11.0394 22.581C10.0677 23.1454 9.0966 23.7069 8.12629 24.2653C8.03878 24.3089 7.94725 24.3439 7.85298 24.3698Z" fill="#F7F5EE"/>
<path d="M22.132 11.355C22.0531 11.3579 21.9748 11.3411 21.9041 11.3062C21.8333 11.2712 21.7724 11.2192 21.7268 11.1548C21.6811 11.0905 21.6522 11.0158 21.6427 10.9374C21.6331 10.8591 21.6432 10.7796 21.672 10.7062C21.7503 10.5214 21.8432 10.343 21.9498 10.1729C22.3942 9.38331 22.8475 8.59743 23.3097 7.81526C23.3622 7.71495 23.424 7.61974 23.4941 7.53083C23.5266 7.47965 23.5692 7.43564 23.6193 7.40153C23.6694 7.36741 23.7259 7.34391 23.7855 7.33246C23.845 7.32101 23.9062 7.32186 23.9654 7.33496C24.0246 7.34806 24.0805 7.37312 24.1296 7.40862C24.1836 7.43625 24.2314 7.47465 24.2701 7.52146C24.3087 7.56827 24.3373 7.6225 24.3542 7.68079C24.371 7.73908 24.3758 7.80021 24.3681 7.8604C24.3604 7.9206 24.3405 7.97859 24.3096 8.0308C23.7252 9.06185 23.1297 10.084 22.5319 11.1084C22.4914 11.1798 22.4334 11.2398 22.3635 11.2829C22.2936 11.326 22.214 11.3508 22.132 11.355Z" fill="#F7F5EE"/>
<path d="M7.82631 11.6348C7.95203 11.6472 8.07267 11.6908 8.1774 11.7614L10.9594 13.3702C11.0479 13.4174 11.13 13.4757 11.2039 13.5435C11.2885 13.6125 11.3436 13.7111 11.3581 13.8192C11.3725 13.9274 11.3452 14.037 11.2816 14.1257C11.2292 14.2278 11.1393 14.3056 11.0308 14.3428C10.9223 14.3801 10.8036 14.374 10.6995 14.3257C10.5276 14.2472 10.36 14.1597 10.1973 14.0635C9.38843 13.6013 8.58034 13.1362 7.77298 12.668C7.6357 12.6034 7.51489 12.5084 7.41967 12.3903C7.36598 12.3195 7.33474 12.2342 7.32998 12.1455C7.32523 12.0568 7.34718 11.9687 7.393 11.8925C7.43609 11.8152 7.49887 11.7506 7.57497 11.7053C7.65106 11.6601 7.73777 11.6357 7.82631 11.6348Z" fill="#F7F5EE"/>
<path d="M13.8881 11.357C13.7947 11.3517 13.7043 11.3218 13.6262 11.2703C13.5482 11.2188 13.4852 11.1475 13.4437 11.0636C12.8689 10.0726 12.2956 9.08006 11.7238 8.08604C11.6842 8.03165 11.657 7.96924 11.6442 7.90321C11.6314 7.83718 11.6332 7.76914 11.6495 7.70389C11.6658 7.63863 11.6962 7.57775 11.7386 7.52553C11.781 7.47331 11.8343 7.43101 11.8949 7.40164C11.9477 7.36599 12.0076 7.34213 12.0705 7.33169C12.1334 7.32124 12.1979 7.32445 12.2594 7.34111C12.321 7.35776 12.3782 7.38746 12.4273 7.42819C12.4763 7.46893 12.516 7.51974 12.5437 7.57719C13.1437 8.59712 13.7414 9.61928 14.3214 10.6548C14.3621 10.7283 14.3825 10.8112 14.3805 10.8952C14.3785 10.9792 14.3542 11.0611 14.3101 11.1326C14.266 11.2041 14.2036 11.2625 14.1295 11.302C14.0553 11.3414 13.972 11.3604 13.8881 11.357Z" fill="#F7F5EE"/>
<path d="M24.6428 13.8945C24.6438 13.7992 24.6712 13.7061 24.7217 13.6253C24.7723 13.5445 24.8442 13.4793 24.9295 13.4367C25.9205 12.8605 26.9123 12.2872 27.9048 11.7169C27.9592 11.6773 28.0214 11.6499 28.0873 11.6367C28.1531 11.6234 28.2211 11.6245 28.2865 11.6399C28.3519 11.6553 28.4132 11.6846 28.4662 11.7259C28.5192 11.7672 28.5627 11.8194 28.5937 11.8791C28.632 11.9337 28.6576 11.9963 28.6684 12.0621C28.6793 12.128 28.6751 12.1954 28.6563 12.2594C28.6376 12.3235 28.6046 12.3825 28.5599 12.432C28.5152 12.4816 28.4599 12.5204 28.3981 12.5457C27.3982 13.1323 26.3983 13.7167 25.385 14.2811C25.3137 14.3277 25.2312 14.3545 25.1461 14.3587C25.061 14.3629 24.9764 14.3443 24.9008 14.305C24.8252 14.2656 24.7615 14.2068 24.7162 14.1347C24.6708 14.0626 24.6455 13.9797 24.6428 13.8945Z" fill="#F7F5EE"/>
<path d="M18.4812 33.7022C18.4812 34.2577 18.4812 34.8132 18.4812 35.3665C18.4812 35.7754 18.2967 36.0043 17.9945 35.9998C17.6923 35.9954 17.5257 35.7776 17.5234 35.3888C17.5234 34.254 17.5234 33.1193 17.5234 31.9845C17.5234 31.6001 17.7034 31.3779 17.9923 31.3712C18.2812 31.3646 18.4789 31.5934 18.4812 32.0023C18.4834 32.5689 18.4812 33.1356 18.4812 33.7022Z" fill="#F7F5EE"/>
<path d="M17.5211 2.30209C17.5211 1.73324 17.5211 1.16661 17.5211 0.599978C17.5211 0.220002 17.71 -0.00220557 18.0033 1.65088e-05C18.2966 0.00223859 18.4766 0.222224 18.4788 0.606644C18.4788 1.73991 18.4788 2.87391 18.4788 4.00865C18.4788 4.39529 18.3033 4.6175 18.0166 4.62639C17.73 4.63528 17.5256 4.40418 17.5211 4.00199C17.5167 3.43535 17.5189 2.86872 17.5211 2.30209Z" fill="#F7F5EE"/>
<path d="M2.30876 18.4787C1.73991 18.4787 1.17328 18.4787 0.606647 18.4787C0.224449 18.4787 0.00223843 18.2921 1.63475e-05 18.0032C-0.00220573 17.7143 0.222224 17.5232 0.599978 17.521C1.74657 17.521 2.89391 17.521 4.04198 17.521C4.41307 17.521 4.65306 17.7254 4.62417 18.0143C4.59306 18.3543 4.36641 18.4809 4.04643 18.4787H2.30876Z" fill="#F7F5EE"/>
<path d="M33.6756 18.4787C33.109 18.4787 32.5424 18.4787 31.9735 18.4787C31.5935 18.4787 31.3713 18.2898 31.3736 17.9987C31.3758 17.7076 31.5958 17.5232 31.9757 17.521C33.1223 17.521 34.2689 17.521 35.4155 17.521C35.7377 17.521 35.9599 17.6477 35.9955 17.9832C36.0266 18.2721 35.7866 18.4743 35.4155 18.4787C34.8355 18.4854 34.2556 18.4787 33.6756 18.4787Z" fill="#F7F5EE"/>
<path d="M7.97945 17.519C8.53274 17.519 9.09049 17.519 9.63934 17.519C10.0349 17.519 10.2326 17.6879 10.2326 17.9946C10.2326 18.3012 10.0371 18.4745 9.64379 18.4767C8.55052 18.4767 7.45652 18.4767 6.36177 18.4767C5.98179 18.4767 5.75737 18.2901 5.75514 18.0012C5.75292 17.7123 5.97735 17.5257 6.35733 17.5212C6.89285 17.5146 7.43726 17.519 7.97945 17.519Z" fill="#F7F5EE"/>
<path d="M17.521 27.9806C17.521 27.4406 17.521 26.8984 17.521 26.3585C17.521 25.9651 17.6921 25.7674 17.9988 25.7652C18.3054 25.7629 18.4765 25.9651 18.4787 26.3585C18.4787 27.4517 18.4787 28.5457 18.4787 29.6405C18.4787 30.0204 18.2876 30.2449 18.001 30.2449C17.7144 30.2449 17.5277 30.0227 17.521 29.6405C17.5144 29.0872 17.521 28.5339 17.521 27.9806Z" fill="#F7F5EE"/>
<path d="M18.4812 8.01946C18.4812 8.55942 18.4812 9.10161 18.4812 9.64157C18.4812 10.0349 18.3078 10.2326 18.0012 10.2326C17.6945 10.2326 17.5257 10.0349 17.5234 9.63935C17.5234 8.54608 17.5234 7.45208 17.5234 6.35734C17.5234 5.97514 17.7101 5.75293 18.0012 5.75293C18.2923 5.75293 18.4745 5.97514 18.4789 6.35956C18.4856 6.91286 18.4812 7.46616 18.4812 8.01946Z" fill="#F7F5EE"/>
<path d="M28.0228 18.4787C27.4695 18.4787 26.9117 18.4787 26.3629 18.4787C25.9673 18.4787 25.7696 18.3098 25.7674 18.0032C25.7651 17.6965 25.9629 17.5232 26.3562 17.521C27.4495 17.521 28.5435 17.521 29.6382 17.521C30.0204 17.521 30.2426 17.7077 30.2448 17.9965C30.2471 18.2854 30.0226 18.4721 29.6449 18.4765C29.1138 18.4854 28.5627 18.4787 28.0228 18.4787Z" fill="#F7F5EE"/>
<path d="M28.8226 28.4959C28.8267 28.5884 28.8052 28.6803 28.7605 28.7614C28.7158 28.8426 28.6497 28.9098 28.5693 28.9558C28.4907 29.0107 28.3955 29.0367 28.3 29.0294C28.2044 29.0221 28.1143 28.982 28.0449 28.9158C27.6649 28.5514 27.2938 28.1781 26.9338 27.787C26.8626 27.7039 26.8273 27.5959 26.8357 27.4867C26.844 27.3776 26.8953 27.2762 26.9783 27.2048C27.0443 27.1174 27.1416 27.059 27.2498 27.042C27.3581 27.025 27.4686 27.0507 27.5582 27.1137C28.0144 27.4658 28.4197 27.8794 28.7626 28.3425C28.792 28.3895 28.8123 28.4415 28.8226 28.4959Z" fill="#F7F5EE"/>
<path d="M8.9484 27.3206C8.95173 27.3965 8.9381 27.4722 8.9085 27.5422C8.87891 27.6121 8.83408 27.6746 8.7773 27.7251C8.46621 28.0339 8.15734 28.3472 7.83958 28.6472C7.79822 28.6998 7.74604 28.7428 7.68659 28.7734C7.62713 28.804 7.56179 28.8215 7.49499 28.8247C7.4282 28.8279 7.3615 28.8166 7.29942 28.7917C7.23734 28.7669 7.18133 28.729 7.13518 28.6806C6.91298 28.4828 6.91298 28.2028 7.15518 27.9517C7.4685 27.6273 7.79292 27.314 8.12179 27.0051C8.18953 26.9289 8.28086 26.8777 8.38117 26.8596C8.48148 26.8414 8.58497 26.8575 8.67509 26.9051C8.75536 26.9413 8.82367 26.9996 8.87206 27.0732C8.92045 27.1468 8.94693 27.2326 8.9484 27.3206Z" fill="#F7F5EE"/>
<path d="M8.65264 8.94838C8.57674 8.94688 8.50202 8.92927 8.43345 8.89671C8.36487 8.86415 8.30401 8.81737 8.25488 8.7595C7.9549 8.4573 7.65048 8.15954 7.36605 7.84623C7.12384 7.58624 7.1194 7.31737 7.33938 7.11738C7.38522 7.06872 7.44098 7.03048 7.50288 7.00524C7.56478 6.98 7.63138 6.96836 7.69818 6.9711C7.76497 6.97383 7.8304 6.99089 7.89002 7.02111C7.94965 7.05134 8.00209 7.09402 8.04378 7.14627C8.36673 7.4618 8.683 7.78326 8.99261 8.11065C9.06839 8.17851 9.12016 8.26909 9.14019 8.36882C9.16021 8.46856 9.14742 8.57209 9.10372 8.66395C9.06685 8.75196 9.00378 8.82647 8.92307 8.87736C8.84236 8.92825 8.74794 8.95305 8.65264 8.94838Z" fill="#F7F5EE"/>
<path d="M29.0248 7.64419C29.0234 7.72216 29.0062 7.79902 28.9741 7.87008C28.942 7.94115 28.8957 8.00492 28.8382 8.0575C28.5337 8.35748 28.2338 8.65968 27.9271 8.94633C27.7049 9.16854 27.4471 9.22187 27.1938 8.99077C27.1445 8.94194 27.1061 8.88321 27.0812 8.81847C27.0562 8.75372 27.0453 8.68442 27.0491 8.61514C27.0528 8.54585 27.0713 8.47816 27.1031 8.41651C27.135 8.35486 27.1795 8.30066 27.2338 8.25748C27.5471 7.93306 27.8716 7.61974 28.2004 7.31088C28.2649 7.24064 28.3503 7.193 28.4439 7.17499C28.5375 7.15698 28.6345 7.16957 28.7204 7.21088C28.8065 7.24758 28.8806 7.30759 28.9344 7.38415C28.9881 7.46071 29.0195 7.55078 29.0248 7.64419Z" fill="#F7F5EE"/>
<path d="M3.86419 13.5435C4.32861 13.6812 4.85302 13.8168 5.3641 13.9879C5.41516 14.0071 5.4619 14.0362 5.50164 14.0736C5.54138 14.111 5.57332 14.1559 5.59563 14.2057C5.61794 14.2554 5.63017 14.3091 5.63162 14.3637C5.63308 14.4182 5.62372 14.4725 5.60409 14.5234C5.58444 14.6376 5.52093 14.7397 5.42712 14.8078C5.3333 14.8758 5.2166 14.9046 5.1019 14.8878C4.56909 14.7954 4.04766 14.6464 3.54644 14.4434C3.44611 14.3985 3.367 14.3165 3.3256 14.2147C3.2842 14.1129 3.28371 13.999 3.32423 13.8968C3.38423 13.6612 3.55977 13.5635 3.86419 13.5435Z" fill="#F7F5EE"/>
<path d="M14.0858 32.6957C13.7147 32.6823 13.4947 32.4334 13.5658 32.1246C13.6747 31.6468 13.808 31.1735 13.9613 30.7069C13.9769 30.6442 14.006 30.5856 14.0466 30.5353C14.0871 30.485 14.1382 30.4442 14.1961 30.4156C14.2541 30.3871 14.3176 30.3715 14.3822 30.37C14.4468 30.3685 14.5109 30.3811 14.5702 30.4069C14.6319 30.4234 14.6894 30.4525 14.7392 30.4925C14.7891 30.5325 14.83 30.5823 14.8595 30.639C14.8889 30.6956 14.9063 30.7578 14.9104 30.8215C14.9146 30.8852 14.9054 30.9491 14.8835 31.0091C14.7746 31.4535 14.6479 31.8846 14.5146 32.3157C14.4948 32.4174 14.4421 32.5097 14.3646 32.5784C14.2871 32.6471 14.1891 32.6883 14.0858 32.6957Z" fill="#F7F5EE"/>
<path d="M21.9474 3.30404C22.0205 3.29804 22.0939 3.3095 22.1617 3.33747C22.2294 3.36544 22.2895 3.40912 22.3371 3.46491C22.3846 3.52069 22.4182 3.58698 22.4351 3.65831C22.4519 3.72963 22.4516 3.80395 22.4341 3.87512C22.3274 4.35287 22.1919 4.82617 22.0385 5.29058C22.0232 5.35348 21.9943 5.41226 21.9538 5.46282C21.9134 5.51337 21.8624 5.55448 21.8044 5.58327C21.7464 5.61205 21.6828 5.62781 21.6181 5.62946C21.5534 5.6311 21.4891 5.61859 21.4297 5.59279C21.3681 5.57575 21.3107 5.54618 21.2611 5.50594C21.2114 5.4657 21.1706 5.41565 21.1412 5.35892C21.1118 5.30219 21.0944 5.24 21.0902 5.17624C21.0859 5.11248 21.0948 5.04853 21.1164 4.98838C21.2275 4.54396 21.3519 4.1151 21.4852 3.68179C21.5076 3.57552 21.5656 3.48008 21.6497 3.41136C21.7338 3.34264 21.8388 3.30477 21.9474 3.30404Z" fill="#F7F5EE"/>
<path d="M19.2833 22.7187C19.3982 22.7093 19.5128 22.7398 19.6078 22.8049C19.7029 22.8701 19.7727 22.9659 19.8055 23.0764C19.9344 23.5209 20.0506 23.9712 20.1543 24.4275C20.1745 24.4901 20.1816 24.5562 20.1754 24.6216C20.1691 24.6871 20.1496 24.7506 20.118 24.8083C20.0864 24.866 20.0434 24.9167 19.9916 24.9572C19.9398 24.9977 19.8802 25.0273 19.8166 25.044C19.753 25.0608 19.6867 25.0644 19.6216 25.0547C19.5566 25.045 19.4942 25.0222 19.4382 24.9876C19.3823 24.9529 19.334 24.9073 19.2963 24.8534C19.2586 24.7995 19.2322 24.7385 19.2188 24.6741C19.0833 24.2164 18.9633 23.752 18.87 23.2831C18.8547 23.2184 18.8536 23.1511 18.8668 23.086C18.8801 23.0208 18.9072 22.9593 18.9465 22.9056C18.9858 22.852 19.0363 22.8075 19.0944 22.7752C19.1525 22.7429 19.217 22.7237 19.2833 22.7187Z" fill="#F7F5EE"/>
<path d="M23.3363 17.1431C22.9985 17.1298 22.8074 17.0298 22.7474 16.7698C22.7286 16.7152 22.721 16.6573 22.7253 16.5996C22.7295 16.542 22.7454 16.4857 22.772 16.4344C22.7986 16.3831 22.8353 16.3377 22.88 16.301C22.9247 16.2643 22.9763 16.2371 23.0319 16.221C23.5234 16.0666 24.0226 15.9376 24.5273 15.8343C24.6412 15.814 24.7585 15.8388 24.8543 15.9035C24.9502 15.9682 25.017 16.0678 25.0406 16.181C25.0624 16.2343 25.0728 16.2916 25.0713 16.3492C25.0699 16.4068 25.0565 16.4634 25.0321 16.5156C25.0077 16.5677 24.9727 16.6143 24.9295 16.6523C24.8862 16.6903 24.8355 16.719 24.7806 16.7365C24.2673 16.9009 23.754 17.0232 23.3363 17.1431Z" fill="#F7F5EE"/>
<path d="M13.2836 19.3301C13.2867 19.4388 13.2524 19.5453 13.1865 19.6318C13.1206 19.7184 13.027 19.7797 12.9214 19.8056C12.4881 19.9322 12.0503 20.0478 11.6081 20.1478C11.2681 20.2233 11.017 20.0767 10.9615 19.7945C10.9453 19.7293 10.9429 19.6615 10.9545 19.5953C10.9662 19.5292 10.9915 19.4663 11.029 19.4106C11.0665 19.3549 11.1153 19.3076 11.1722 19.2719C11.229 19.2363 11.2928 19.2129 11.3592 19.2034C11.7814 19.0834 12.2081 18.9701 12.6392 18.8812C12.7115 18.8569 12.7886 18.8498 12.8641 18.8606C12.9397 18.8714 13.0117 18.8998 13.0743 18.9434C13.137 18.9871 13.1885 19.0448 13.2249 19.1119C13.2612 19.179 13.2813 19.2538 13.2836 19.3301Z" fill="#F7F5EE"/>
<path d="M32.6956 21.9696C32.6969 22.0428 32.6809 22.1152 32.6489 22.181C32.617 22.2468 32.5701 22.3042 32.5119 22.3485C32.4537 22.3928 32.386 22.4229 32.314 22.4362C32.2421 22.4495 32.1681 22.4457 32.0979 22.4252C31.6335 22.3207 31.1713 22.1874 30.7158 22.043C30.6533 22.0286 30.5946 22.0009 30.5439 21.9618C30.4931 21.9226 30.4514 21.8729 30.4216 21.8162C30.3919 21.7594 30.3748 21.6968 30.3714 21.6328C30.3681 21.5688 30.3787 21.5048 30.4025 21.4452C30.4168 21.3828 30.444 21.3241 30.4825 21.2729C30.5209 21.2217 30.5696 21.1791 30.6256 21.1479C30.6815 21.1167 30.7433 21.0975 30.8071 21.0917C30.8708 21.0859 30.9351 21.0936 30.9958 21.1141C31.4402 21.2252 31.8846 21.3563 32.329 21.4919C32.4373 21.5141 32.534 21.5747 32.6014 21.6624C32.6687 21.7502 32.7022 21.8592 32.6956 21.9696Z" fill="#F7F5EE"/>
<path d="M17.1524 12.7705C17.1573 12.8824 17.1229 12.9927 17.0552 13.0819C16.9874 13.1712 16.8905 13.234 16.7813 13.2593C16.6776 13.2948 16.5644 13.2895 16.4645 13.2446C16.3646 13.1996 16.2856 13.1182 16.2435 13.0171C16.051 12.5149 15.9131 11.9934 15.8324 11.4616C15.8155 11.3529 15.8415 11.2418 15.9049 11.1518C15.9684 11.0618 16.0643 11 16.1724 10.9795C16.2815 10.9403 16.4016 10.9454 16.5071 10.9935C16.6125 11.0417 16.695 11.1291 16.7368 11.2372C16.9113 11.7379 17.0501 12.2502 17.1524 12.7705Z" fill="#F7F5EE"/>
<path d="M20.292 11.5659C20.183 12.073 20.0344 12.5708 19.8476 13.0547C19.806 13.1566 19.7263 13.2382 19.6255 13.2822C19.5246 13.3262 19.4106 13.3291 19.3076 13.2902C19.1943 13.2656 19.0951 13.1977 19.0312 13.101C18.9673 13.0043 18.9437 12.8864 18.9654 12.7725C19.0563 12.2516 19.2008 11.7415 19.3965 11.2504C19.4324 11.1465 19.5079 11.0611 19.6066 11.0128C19.7053 10.9645 19.8191 10.9572 19.9231 10.9926C20.1809 11.0593 20.2965 11.2393 20.292 11.5659Z" fill="#F7F5EE"/>
<path d="M15.7191 24.3409C15.8302 23.9631 15.9546 23.4742 16.1191 23.0076C16.137 22.9499 16.1666 22.8964 16.2059 22.8505C16.2452 22.8045 16.2935 22.7671 16.3478 22.7405C16.4021 22.7138 16.4612 22.6986 16.5216 22.6956C16.582 22.6926 16.6424 22.702 16.699 22.7232C16.7585 22.7367 16.8145 22.7624 16.8637 22.7985C16.9128 22.8346 16.954 22.8805 16.9846 22.9332C17.0153 22.986 17.0347 23.0445 17.0418 23.105C17.0489 23.1656 17.0434 23.227 17.0257 23.2854C16.9124 23.7631 16.7813 24.2364 16.6257 24.7008C16.6105 24.7594 16.5834 24.8143 16.5463 24.862C16.5091 24.9098 16.4625 24.9494 16.4095 24.9786C16.3564 25.0077 16.298 25.0257 16.2377 25.0314C16.1775 25.0372 16.1167 25.0305 16.0591 25.0119C15.7813 24.9253 15.688 24.7231 15.7191 24.3409Z" fill="#F7F5EE"/>
<path d="M11.6103 15.7034C12.0192 15.8234 12.5436 15.9589 13.0525 16.1478C13.1035 16.167 13.1503 16.1962 13.19 16.2335C13.2298 16.2709 13.2617 16.3158 13.284 16.3656C13.3063 16.4153 13.3186 16.4691 13.32 16.5236C13.3215 16.5781 13.3121 16.6324 13.2925 16.6833C13.2734 16.7917 13.2134 16.8885 13.1248 16.9539C13.0363 17.0192 12.9261 17.048 12.8169 17.0344C12.2691 16.9546 11.7337 16.8052 11.2237 16.59C11.1274 16.5521 11.0494 16.4785 11.0059 16.3846C10.9625 16.2906 10.9569 16.1835 10.9904 16.0856C11.057 15.8278 11.2326 15.7034 11.6103 15.7034Z" fill="#F7F5EE"/>
<path d="M24.3719 20.2898C23.9719 20.1699 23.4475 20.0343 22.9408 19.8454C22.8906 19.8248 22.845 19.7944 22.8067 19.756C22.7683 19.7176 22.7379 19.672 22.7172 19.6218C22.6965 19.5715 22.686 19.5177 22.6863 19.4635C22.6865 19.4092 22.6975 19.3555 22.7186 19.3055C22.7387 19.1977 22.7996 19.1017 22.8885 19.0376C22.9775 18.9735 23.0877 18.946 23.1964 18.961C23.744 19.0418 24.2793 19.1911 24.7896 19.4055C24.8848 19.445 24.961 19.5198 25.0024 19.6142C25.0438 19.7086 25.0472 19.8153 25.0118 19.9121C24.9385 20.181 24.7607 20.2965 24.3719 20.2898Z" fill="#F7F5EE"/>
<path d="M15.1523 4.99986C15.1523 5.29317 15.0434 5.47094 14.8012 5.52872C14.7472 5.54899 14.6896 5.55815 14.6319 5.55564C14.5742 5.55313 14.5177 5.539 14.4656 5.5141C14.4135 5.4892 14.367 5.45404 14.3288 5.41074C14.2907 5.36743 14.2616 5.31686 14.2435 5.26206C14.0837 4.76033 13.9494 4.25082 13.8413 3.73549C13.8211 3.62737 13.8446 3.51567 13.9067 3.42486C13.9688 3.33406 14.0643 3.27157 14.1724 3.25108C14.2803 3.20822 14.4008 3.20934 14.5079 3.25419C14.6151 3.29905 14.7004 3.38407 14.7457 3.49106C14.9201 3.98268 15.0561 4.48714 15.1523 4.99986Z" fill="#F7F5EE"/>
<path d="M32.7713 14.319C32.778 14.4276 32.7457 14.5351 32.68 14.6219C32.6144 14.7087 32.5199 14.7691 32.4135 14.7923C31.9691 14.9167 31.5247 15.0367 31.0647 15.1345C31.0022 15.1518 30.9369 15.1564 30.8726 15.1479C30.8083 15.1394 30.7463 15.118 30.6905 15.085C30.6347 15.052 30.586 15.0081 30.5476 14.9558C30.5091 14.9036 30.4816 14.8442 30.4666 14.781C30.4516 14.7179 30.4496 14.6524 30.4605 14.5885C30.4715 14.5246 30.4952 14.4635 30.5303 14.409C30.5654 14.3544 30.6111 14.3075 30.6648 14.271C30.7184 14.2346 30.7789 14.2093 30.8425 14.1968C31.2758 14.0746 31.7114 13.9523 32.1513 13.8546C32.2235 13.8331 32.2997 13.8287 32.3738 13.842C32.4479 13.8552 32.5179 13.8856 32.5782 13.9307C32.6385 13.9759 32.6873 14.0345 32.7209 14.1019C32.7544 14.1694 32.7717 14.2437 32.7713 14.319Z" fill="#F7F5EE"/>
<path d="M4.94626 20.8433C5.29958 20.861 5.48179 20.9766 5.53512 21.2321C5.56488 21.3435 5.55024 21.462 5.49427 21.5627C5.4383 21.6635 5.34539 21.7385 5.23513 21.7721C4.75516 21.921 4.27075 22.0521 3.77967 22.1543C3.66664 22.1791 3.54838 22.1589 3.45003 22.0979C3.35168 22.0369 3.28101 21.9399 3.25304 21.8276C3.22856 21.7758 3.21491 21.7195 3.2129 21.6622C3.2109 21.6049 3.22059 21.5478 3.24138 21.4943C3.26217 21.4409 3.29363 21.3923 3.33384 21.3514C3.37405 21.3105 3.42216 21.2782 3.47524 21.2566C4.0041 21.0855 4.5174 20.9633 4.94626 20.8433Z" fill="#F7F5EE"/>
<path d="M22.1764 32.2581C22.1252 32.5403 22.0208 32.7181 21.7764 32.7603C21.6709 32.7886 21.5586 32.7771 21.4611 32.7279C21.3635 32.6787 21.2875 32.5953 21.2475 32.4936C21.0581 31.9918 20.9269 31.4699 20.8564 30.9382C20.8448 30.8375 20.8712 30.7362 20.9304 30.654C20.9896 30.5718 21.0773 30.5147 21.1764 30.4937C21.2776 30.4516 21.391 30.4497 21.4935 30.4885C21.596 30.5274 21.6797 30.604 21.7275 30.7026C21.9608 31.2004 22.0364 31.7648 22.1764 32.2581Z" fill="#F7F5EE"/>
<path d="M13.2015 23.2319C13.1147 23.239 13.0276 23.222 12.9499 23.1829C12.8721 23.1437 12.8066 23.0838 12.7607 23.0099C12.7148 22.9359 12.6901 22.8507 12.6895 22.7636C12.6888 22.6766 12.7122 22.591 12.7571 22.5164C13.0992 22.0638 13.5075 21.6653 13.9681 21.3342C14.0511 21.2917 14.1448 21.2751 14.2374 21.2864C14.3299 21.2977 14.4169 21.3365 14.4872 21.3977C14.5574 21.4589 14.6078 21.5397 14.6317 21.6298C14.6556 21.7199 14.652 21.815 14.6214 21.9031C14.2641 22.4048 13.8255 22.8434 13.3237 23.2008C13.2864 23.2216 13.2442 23.2324 13.2015 23.2319Z" fill="#F7F5EE"/>
<path d="M23.2362 22.8142C23.2429 22.9027 23.2245 22.9913 23.1833 23.0699C23.142 23.1485 23.0795 23.2139 23.0029 23.2586C22.9238 23.3135 22.829 23.3412 22.7329 23.3376C22.6367 23.334 22.5443 23.2992 22.4696 23.2386C22.0551 22.8901 21.6782 22.4991 21.3452 22.072C21.2904 21.9858 21.2654 21.8839 21.2742 21.7821C21.2829 21.6803 21.3248 21.5841 21.3934 21.5084C21.462 21.4327 21.5536 21.3816 21.6541 21.363C21.7546 21.3444 21.8584 21.3593 21.9496 21.4054C22.4191 21.7652 22.8364 22.1885 23.1895 22.6631C23.2156 22.7096 23.2315 22.7611 23.2362 22.8142Z" fill="#F7F5EE"/>
<path d="M22.8164 12.7638C22.9048 12.7579 22.9931 12.7765 23.0716 12.8177C23.15 12.8589 23.2155 12.921 23.2608 12.9971C23.3157 13.0762 23.3434 13.1709 23.3398 13.2671C23.3362 13.3632 23.3015 13.4556 23.2408 13.5304C22.8909 13.9404 22.4992 14.3127 22.072 14.6414C21.9858 14.6962 21.8839 14.7212 21.7821 14.7124C21.6803 14.7037 21.5841 14.6618 21.5084 14.5932C21.4327 14.5246 21.3816 14.433 21.363 14.3325C21.3444 14.232 21.3593 14.1282 21.4054 14.037C21.7697 13.5744 22.195 13.1633 22.6698 12.8149C22.7151 12.789 22.7648 12.7717 22.8164 12.7638Z" fill="#F7F5EE"/>
<path d="M12.7659 13.1815C12.7609 13.0929 12.7808 13.0047 12.8233 12.9268C12.8658 12.849 12.9293 12.7846 13.0065 12.7409C13.0837 12.6972 13.1716 12.676 13.2602 12.6796C13.3489 12.6832 13.4347 12.7116 13.5081 12.7615C13.9441 13.1035 14.3314 13.5034 14.6591 13.9503C14.7073 14.0379 14.7261 14.1386 14.7127 14.2377C14.6993 14.3367 14.6545 14.4289 14.5848 14.5006C14.5152 14.5722 14.4243 14.6196 14.3257 14.6358C14.227 14.6519 14.1258 14.636 14.0369 14.5903C13.5824 14.2317 13.1742 13.8182 12.8214 13.3593C12.7901 13.3048 12.7711 13.2441 12.7659 13.1815Z" fill="#F7F5EE"/>
<path d="M11.5015 24.8253C11.4197 24.8237 11.3398 24.8007 11.2697 24.7584C11.1997 24.7162 11.1419 24.6563 11.1023 24.5847C11.0627 24.5132 11.0426 24.4324 11.044 24.3506C11.0454 24.2688 11.0684 24.1889 11.1104 24.1187C11.2659 23.8581 11.4854 23.6416 11.7482 23.4899C11.8231 23.448 11.9079 23.427 11.9937 23.4291C12.0795 23.4312 12.1631 23.4562 12.236 23.5016C12.3088 23.5469 12.3682 23.611 12.4078 23.6871C12.4475 23.7632 12.466 23.8486 12.4615 23.9343C12.4481 24.2409 11.8193 24.8342 11.5015 24.8253Z" fill="#F7F5EE"/>
<path d="M23.9117 23.5386C24.2473 23.5386 24.8517 24.1897 24.825 24.5207C24.8186 24.6022 24.7911 24.6805 24.7453 24.7481C24.6994 24.8157 24.6368 24.8703 24.5635 24.9063C24.4902 24.9424 24.4088 24.9588 24.3273 24.9539C24.2457 24.9491 24.1669 24.9231 24.0984 24.8785C23.8538 24.7224 23.6478 24.5127 23.4962 24.2652C23.4524 24.1921 23.4289 24.1086 23.428 24.0234C23.4271 23.9382 23.449 23.8543 23.4913 23.7803C23.5336 23.7063 23.5949 23.6449 23.6687 23.6024C23.7426 23.5599 23.8265 23.5379 23.9117 23.5386Z" fill="#F7F5EE"/>
<path d="M24.9608 11.666C24.9474 11.9615 24.3386 12.5548 24.043 12.5704C23.9626 12.5737 23.8827 12.5563 23.811 12.5198C23.7392 12.4833 23.6781 12.429 23.6334 12.362C23.5888 12.295 23.5621 12.2177 23.556 12.1374C23.5499 12.0572 23.5646 11.9767 23.5986 11.9037C23.7564 11.5997 24.0114 11.3571 24.323 11.2149C24.3951 11.187 24.4731 11.1774 24.5498 11.1869C24.6265 11.1964 24.6997 11.2248 24.7629 11.2694C24.826 11.3141 24.8771 11.3737 24.9116 11.4428C24.9462 11.512 24.963 11.5887 24.9608 11.666Z" fill="#F7F5EE"/>
<path d="M12.5748 11.926C12.5615 12.3704 12.1637 12.5926 11.8415 12.3904C11.5975 12.2331 11.393 12.0217 11.2438 11.7727C11.1826 11.6831 11.1562 11.5742 11.1697 11.4666C11.1832 11.3589 11.2356 11.2599 11.3171 11.1883C11.388 11.1047 11.4886 11.0519 11.5976 11.0411C11.7067 11.0303 11.8156 11.0624 11.9015 11.1305C12.1926 11.3505 12.5037 11.5749 12.5748 11.926Z" fill="#F7F5EE"/>
<path d="M26.5583 20.8942C26.4294 20.8542 26.1961 20.8031 25.9761 20.7164C25.9176 20.7012 25.8627 20.6742 25.815 20.637C25.7672 20.5998 25.7275 20.5533 25.6984 20.5002C25.6693 20.4472 25.6513 20.3887 25.6456 20.3285C25.6398 20.2682 25.6465 20.2074 25.665 20.1498C25.6781 20.0877 25.7039 20.0289 25.7407 19.9772C25.7775 19.9254 25.8246 19.8818 25.8791 19.8491C25.9335 19.8164 25.9941 19.7952 26.057 19.7869C26.12 19.7786 26.184 19.7834 26.245 19.801C26.4663 19.8392 26.683 19.9003 26.8916 19.9832C26.9498 19.9987 27.0041 20.0258 27.0515 20.0629C27.0988 20.1001 27.1381 20.1464 27.1669 20.1992C27.1958 20.252 27.2137 20.3101 27.2195 20.37C27.2252 20.4298 27.2188 20.4903 27.2005 20.5476C27.1316 20.8142 26.9361 20.9298 26.5583 20.8942Z" fill="#F7F5EE"/>
<path d="M21.5787 7.00421C21.5203 7.24513 21.4461 7.48193 21.3565 7.71306C21.3342 7.76932 21.3007 7.82045 21.258 7.86332C21.2154 7.90619 21.1644 7.93988 21.1082 7.96235C21.052 7.98482 20.9919 7.99558 20.9314 7.99398C20.8709 7.99238 20.8114 7.97845 20.7565 7.95304C20.647 7.91814 20.5552 7.84217 20.5006 7.74107C20.4459 7.63998 20.4325 7.52162 20.4632 7.41085C20.5155 7.16542 20.5899 6.92521 20.6854 6.69312C20.7232 6.59093 20.7983 6.50685 20.8956 6.45779C20.9929 6.40873 21.1052 6.39833 21.2098 6.42869C21.4431 6.48647 21.5587 6.66646 21.5787 7.00421Z" fill="#F7F5EE"/>
<path d="M14.8703 29.5849C14.7603 29.5813 14.6556 29.5371 14.5764 29.4607C14.4972 29.3844 14.4491 29.2813 14.4414 29.1716C14.4148 28.8182 14.5165 28.4671 14.7281 28.1828C14.7812 28.1162 14.8517 28.0656 14.9317 28.0365C15.0118 28.0075 15.0983 28.0011 15.1817 28.0181C15.2652 28.0351 15.3423 28.0748 15.4046 28.1329C15.4669 28.191 15.5119 28.2651 15.5347 28.3472C15.6102 28.5849 15.3991 29.3116 15.2081 29.4582C15.1147 29.5403 14.9946 29.5853 14.8703 29.5849Z" fill="#F7F5EE"/>
<path d="M20.892 9.44831C20.8601 9.66717 20.7973 9.8804 20.7054 10.0816C20.6602 10.1785 20.5835 10.2573 20.4878 10.3051C20.3921 10.3528 20.283 10.3667 20.1784 10.3446C20.0737 10.3224 19.9797 10.2655 19.9116 10.183C19.8434 10.1005 19.8052 9.99744 19.8032 9.8905C19.8073 9.5776 19.8931 9.27119 20.0521 9.00167C20.0989 8.91087 20.1779 8.84076 20.2736 8.80502C20.3693 8.76928 20.4749 8.77047 20.5698 8.80835C20.8098 8.8839 20.9209 9.06389 20.892 9.44831Z" fill="#F7F5EE"/>
<path d="M29.0493 21.5741C28.7758 21.5352 28.5099 21.455 28.2604 21.3364C28.1621 21.2911 28.0845 21.2102 28.0433 21.11C28.002 21.0099 28.0002 20.8978 28.0382 20.7964C28.0614 20.6837 28.1274 20.5843 28.2223 20.5193C28.3172 20.4542 28.4336 20.4285 28.5471 20.4475C28.8063 20.4936 29.0597 20.5681 29.3026 20.6697C29.4061 20.7039 29.4922 20.7772 29.5424 20.8739C29.5926 20.9706 29.6031 21.0832 29.5715 21.1875C29.5469 21.3047 29.4802 21.4088 29.3839 21.4801C29.2877 21.5514 29.1686 21.5848 29.0493 21.5741Z" fill="#F7F5EE"/>
<path d="M6.97066 21.3453C6.6218 21.3564 6.44625 21.2341 6.37514 20.9897C6.3394 20.88 6.3477 20.7608 6.39829 20.6571C6.44888 20.5534 6.53779 20.4735 6.64624 20.4342C6.89712 20.3171 7.16941 20.2528 7.44619 20.2453C7.561 20.238 7.67437 20.2741 7.76372 20.3466C7.85307 20.4191 7.91186 20.5226 7.92838 20.6364C7.95546 20.7421 7.94079 20.8542 7.88741 20.9493C7.83403 21.0445 7.74605 21.1155 7.64173 21.1475C7.39952 21.2408 7.14176 21.2964 6.97066 21.3453Z" fill="#F7F5EE"/>
<path d="M9.41052 15.11C9.65694 15.1403 9.8957 15.2156 10.1149 15.3322C10.2056 15.3794 10.2773 15.4565 10.3177 15.5504C10.3582 15.6443 10.3651 15.7493 10.3371 15.8477C10.3172 15.9548 10.2587 16.0508 10.1727 16.1175C10.0867 16.1843 9.97914 16.2172 9.87049 16.2099C9.6061 16.1938 9.34696 16.129 9.1061 16.0188C8.99428 15.9876 8.89912 15.9138 8.84099 15.8133C8.78285 15.7128 8.76634 15.5936 8.79501 15.4811C8.855 15.21 9.04166 15.0789 9.41052 15.11Z" fill="#F7F5EE"/>
<path d="M15.7478 7.28379C15.7678 7.67266 15.6478 7.8482 15.399 7.91708C15.3447 7.93535 15.2874 7.94257 15.2303 7.93832C15.1732 7.93407 15.1176 7.91844 15.0666 7.89235C15.0157 7.86625 14.9705 7.83023 14.9337 7.78639C14.8969 7.74255 14.8692 7.6918 14.8523 7.63711C14.7594 7.39175 14.6938 7.13689 14.6568 6.87715C14.6486 6.76556 14.6802 6.65467 14.746 6.56417C14.8118 6.47366 14.9075 6.40938 15.0162 6.38275C15.1248 6.35611 15.2394 6.36884 15.3396 6.41867C15.4398 6.4685 15.5191 6.55221 15.5634 6.65494C15.641 6.85949 15.7027 7.06974 15.7478 7.28379Z" fill="#F7F5EE"/>
<path d="M28.6339 15.7524C28.5129 15.7739 28.3882 15.7484 28.2854 15.6811C28.1825 15.6138 28.1093 15.5097 28.0806 15.3902C28.0628 15.336 28.0561 15.2787 28.0608 15.2218C28.0655 15.1649 28.0816 15.1095 28.1082 15.059C28.1347 15.0084 28.1711 14.9637 28.2152 14.9275C28.2593 14.8912 28.3103 14.8642 28.365 14.848C28.5995 14.7603 28.8422 14.6963 29.0894 14.6569C29.1487 14.6434 29.21 14.6421 29.2698 14.6533C29.3295 14.6644 29.3863 14.6876 29.4367 14.7216C29.4871 14.7555 29.53 14.7994 29.5628 14.8506C29.5955 14.9018 29.6175 14.9591 29.6272 15.0191C29.6604 15.1294 29.6495 15.2482 29.5969 15.3505C29.5442 15.4529 29.4539 15.5309 29.345 15.568C29.1189 15.6658 28.879 15.728 28.6339 15.7524Z" fill="#F7F5EE"/>
<path d="M7.47301 15.5545C7.20034 15.5207 6.93436 15.4458 6.68417 15.3323C6.58495 15.2899 6.50453 15.2129 6.45791 15.1156C6.4113 15.0182 6.40169 14.9073 6.43086 14.8034C6.44899 14.6893 6.51087 14.5867 6.60338 14.5174C6.69589 14.4481 6.81175 14.4176 6.92638 14.4323C7.20172 14.4559 7.47013 14.5312 7.71744 14.6545C7.81708 14.6965 7.89799 14.7734 7.94503 14.8707C7.99207 14.9681 8.00201 15.0792 7.97298 15.1834C7.94777 15.2948 7.88348 15.3935 7.79175 15.4616C7.70003 15.5297 7.58695 15.5626 7.47301 15.5545Z" fill="#F7F5EE"/>
<path d="M15.1145 26.5625C15.1473 26.3251 15.2226 26.0955 15.3367 25.8847C15.3817 25.7937 15.4575 25.7215 15.5506 25.6808C15.6437 25.6401 15.7481 25.6337 15.8455 25.6625C15.9518 25.6818 16.0474 25.7392 16.1145 25.8238C16.1815 25.9085 16.2155 26.0146 16.21 26.1225C16.2004 26.4237 16.1197 26.7184 15.9744 26.9825C15.9537 27.0324 15.9234 27.0777 15.8852 27.1159C15.847 27.1541 15.8016 27.1844 15.7516 27.2051C15.7017 27.2257 15.6482 27.2363 15.5941 27.2362C15.5401 27.2361 15.4866 27.2254 15.4367 27.2047C15.1878 27.1091 15.0789 26.9291 15.1145 26.5625Z" fill="#F7F5EE"/>
<path d="M21.3497 29.107C21.3616 29.2191 21.334 29.3318 21.2714 29.4255C21.2089 29.5193 21.1155 29.5882 21.0075 29.6203C20.9056 29.6553 20.7944 29.6521 20.6946 29.6112C20.5949 29.5703 20.5134 29.4946 20.4653 29.3981C20.321 29.1327 20.2447 28.8358 20.2431 28.5337C20.2383 28.4256 20.2731 28.3194 20.341 28.2351C20.409 28.1509 20.5053 28.0943 20.612 28.076C20.7103 28.0483 20.8153 28.0569 20.9079 28.1001C21.0005 28.1434 21.0744 28.2184 21.1164 28.3115C21.2378 28.5619 21.3167 28.8307 21.3497 29.107Z" fill="#F7F5EE"/>
<path d="M10.6882 25.6117C10.6882 25.925 10.0927 26.5516 9.77935 26.5516C9.69114 26.5534 9.60424 26.5301 9.52873 26.4845C9.45321 26.4388 9.39218 26.3727 9.35271 26.2938C9.30247 26.2131 9.27947 26.1184 9.28707 26.0236C9.29467 25.9288 9.33247 25.8389 9.39493 25.7672C9.56985 25.5723 9.76089 25.3924 9.966 25.2295C10.0373 25.1765 10.1227 25.146 10.2115 25.142C10.3002 25.1381 10.3881 25.1608 10.4637 25.2072C10.5368 25.2451 10.5971 25.3036 10.637 25.3756C10.677 25.4475 10.6948 25.5296 10.6882 25.6117Z" fill="#F7F5EE"/>
<path d="M26.0739 26.7116C25.7295 26.7005 25.1428 26.0739 25.1517 25.7539C25.1525 25.6687 25.177 25.5853 25.2224 25.5132C25.2679 25.4411 25.3324 25.383 25.4089 25.3454C25.4855 25.3079 25.5709 25.2923 25.6557 25.3005C25.7406 25.3086 25.8215 25.3402 25.8894 25.3917C26.1044 25.5629 26.299 25.7583 26.4694 25.9739C26.5254 26.0433 26.557 26.1291 26.5595 26.2183C26.5619 26.3074 26.5349 26.3949 26.4827 26.4672C26.4416 26.5398 26.3823 26.6006 26.3106 26.6434C26.2389 26.6863 26.1574 26.7098 26.0739 26.7116Z" fill="#F7F5EE"/>
<path d="M20.0743 25.7029C20.4743 25.7029 20.5721 25.994 20.6432 26.3006C20.7143 26.6073 20.8854 26.9672 20.4832 27.2072C20.4006 27.2568 20.3041 27.2781 20.2084 27.2681C20.1126 27.2581 20.0226 27.2172 19.9521 27.1517C19.7543 26.9939 19.5677 26.2628 19.6566 26.0206C19.6834 25.9302 19.7384 25.8506 19.8135 25.7935C19.8886 25.7364 19.98 25.7046 20.0743 25.7029Z" fill="#F7F5EE"/>
<path d="M16.3589 9.68381C16.3589 10.0527 16.2544 10.2371 15.9967 10.2927C15.8853 10.3239 15.7662 10.3105 15.6645 10.2554C15.5629 10.2002 15.4867 10.1075 15.4523 9.99712C15.3662 9.7748 15.3044 9.54385 15.2678 9.30827C15.2535 9.24968 15.2513 9.18879 15.2612 9.12929C15.2712 9.0698 15.2932 9.01296 15.3258 8.96224C15.3584 8.91151 15.4011 8.86796 15.4511 8.83424C15.5011 8.80051 15.5574 8.77733 15.6167 8.76608C15.674 8.74587 15.7348 8.73759 15.7953 8.74178C15.8559 8.74597 15.915 8.76252 15.9689 8.79042C16.0228 8.81832 16.0705 8.85698 16.1089 8.90401C16.1473 8.95103 16.1757 9.00543 16.1922 9.06384C16.2772 9.26143 16.3334 9.47023 16.3589 9.68381Z" fill="#F7F5EE"/>
<path d="M10.3104 20.0832C10.2638 20.5965 9.84825 20.5853 9.51049 20.6876C9.2194 20.7787 8.95497 20.7698 8.7972 20.4654C8.75017 20.3821 8.73126 20.2859 8.74326 20.191C8.75527 20.0961 8.79757 20.0076 8.86386 19.9387C9.03274 19.741 9.7527 19.5632 9.99713 19.661C10.084 19.6944 10.1596 19.7518 10.215 19.8266C10.2705 19.9013 10.3036 19.9903 10.3104 20.0832Z" fill="#F7F5EE"/>
<path d="M10.8394 10.2304C10.8473 10.3123 10.8304 10.3947 10.7908 10.4669C10.7511 10.5391 10.6906 10.5976 10.6171 10.6348C10.5402 10.6799 10.4519 10.7018 10.3628 10.6979C10.2737 10.694 10.1876 10.6643 10.115 10.6126C9.89186 10.4473 9.69551 10.2487 9.53277 10.0237C9.48036 9.9513 9.45215 9.86421 9.45215 9.77483C9.45215 9.68545 9.48036 9.59835 9.53277 9.52596C9.57703 9.44872 9.64226 9.38559 9.72091 9.34391C9.79957 9.30222 9.88843 9.28367 9.97719 9.29042C10.2683 9.30375 10.8416 9.92593 10.8394 10.2304Z" fill="#F7F5EE"/>
<path d="M26.2939 16.3699C25.9606 16.3855 25.7651 16.2655 25.7073 15.9966C25.6908 15.9379 25.6865 15.8764 25.6948 15.816C25.7031 15.7556 25.7237 15.6975 25.7554 15.6454C25.787 15.5933 25.8291 15.5483 25.8789 15.5131C25.9288 15.478 25.9853 15.4535 26.045 15.4411C26.2577 15.3683 26.4763 15.314 26.6983 15.2789C26.8111 15.2532 26.9294 15.2726 27.0281 15.3327C27.1269 15.3929 27.1983 15.4891 27.2272 15.6011C27.2506 15.6571 27.2622 15.7172 27.2614 15.7779C27.2607 15.8386 27.2475 15.8984 27.2227 15.9538C27.198 16.0092 27.1621 16.0589 27.1174 16.0999C27.0727 16.1409 27.0201 16.1723 26.9628 16.1922C26.7498 16.2842 26.5244 16.3441 26.2939 16.3699Z" fill="#F7F5EE"/>
<path d="M26.7117 9.92607C26.7117 10.2594 26.0629 10.866 25.7273 10.8393C25.645 10.8342 25.5655 10.8068 25.4975 10.7602C25.4294 10.7136 25.3752 10.6494 25.3405 10.5745C25.3059 10.4996 25.2922 10.4167 25.3008 10.3346C25.3095 10.2526 25.3401 10.1744 25.3896 10.1083C25.5459 9.8782 25.746 9.68113 25.9784 9.52831C26.0501 9.48207 26.1329 9.45597 26.2182 9.45273C26.3034 9.4495 26.3879 9.46925 26.4629 9.50992C26.5379 9.55059 26.6006 9.61069 26.6443 9.68391C26.6881 9.75712 26.7114 9.84076 26.7117 9.92607Z" fill="#F7F5EE"/>
</svg>
